<?xml version="1.0" standalone="no"?>
<!DOCTYPE svg PUBLIC "-//W3C//DTD SVG 20010904//EN"
 "http://www.w3.org/TR/2001/REC-SVG-20010904/DTD/svg10.dtd">
<svg version="1.0" xmlns="http://www.w3.org/2000/svg"
 width="811.000000pt" height="811.000000pt" viewBox="0 0 811.000000 811.000000"
 preserveAspectRatio="xMidYMid meet">

<g transform="translate(0.000000,811.000000) scale(0.100000,-0.100000)"
fill="#000000" stroke="none">
<path d="M0 4055 l0 -4055 4055 0 4055 0 0 4055 0 4055 -4055 0 -4055 0 0
-4055z m5779 1839 c33 -4 61 -11 61 -15 0 -5 -6 -9 -13 -9 -7 0 -26 -22 -42
-50 -17 -27 -33 -50 -37 -50 -5 0 -8 -4 -8 -9 0 -4 -36 -68 -80 -141 -44 -73
-80 -134 -80 -136 0 -1 -24 -44 -53 -96 -74 -132 -81 -149 -65 -159 7 -5 78
-10 158 -11 l145 -2 -155 -6 c-85 -4 -477 -8 -870 -9 -545 -1 -719 2 -728 11
-9 9 -12 98 -12 340 l0 328 28 6 c15 3 32 7 37 9 19 6 1652 5 1714 -1z m-3581
-16 c9 -9 12 -196 12 -778 l0 -766 -27 -25 c-16 -14 -59 -47 -98 -74 -38 -27
-107 -76 -153 -109 l-83 -61 43 -7 c51 -8 750 -9 791 -1 l27 5 0 902 c0 688 3
905 12 914 16 16 809 17 839 2 19 -11 19 -45 19 -2128 0 -1164 -4 -2123 -8
-2130 -7 -10 -100 -12 -433 -10 l-424 3 -5 855 -5 855 -245 0 -245 0 -3 -844
c-1 -603 -5 -848 -13 -858 -9 -10 -91 -13 -429 -13 -372 0 -419 2 -424 16 -3
9 -6 966 -6 2128 0 1629 3 2115 12 2124 17 17 829 17 846 0z m5096 -4 c3 -9 6
-267 6 -574 l0 -559 -98 -123 c-253 -318 -419 -581 -618 -978 -311 -624 -492
-1254 -533 -1860 -5 -74 -12 -143 -16 -153 -7 -16 -32 -17 -379 -15 l-371 3 2
70 c1 39 7 102 13 140 33 211 43 269 60 360 47 248 97 453 185 760 77 265 126
409 212 615 96 231 370 779 395 788 4 2 8 8 8 14 0 5 16 35 36 66 20 31 58 89
83 129 67 106 217 317 284 400 l57 72 0 80 0 81 -179 0 c-98 0 -194 3 -212 7
l-34 6 44 11 c35 9 47 18 65 51 82 153 207 347 325 505 65 87 70 100 45 100
-8 0 -12 5 -9 10 4 6 120 10 315 10 271 0 309 -2 314 -16z m-1336 -1161 c12
-3 22 -12 22 -19 0 -8 -45 -70 -99 -138 -97 -122 -290 -404 -369 -541 -436
-754 -696 -1554 -737 -2270 -3 -55 -8 -108 -11 -117 -5 -17 -32 -18 -375 -18
-337 0 -370 1 -376 17 -8 19 8 154 42 368 81 508 222 1037 392 1475 101 258
294 649 458 928 6 9 28 44 49 77 113 174 152 228 170 236 23 9 799 12 834 2z"/>
</g>
</svg>
